:SAMPLES-PER-SECOND 30
:FRAME-RANGE 1-2009
:FULLY-SPECIFIED
:DEGREES
1256
root  -6.14671 40.2066 -50.935 -170.538 -40.6608 175.103
RightUpLeg  -11.7353 -9.70615 -2.54764
RightLeg  5.84023 -33.7503 3.6314
RightFoot  -4.32878 0.158326 -3.0603
RightToes  4.71047e-010 1.2921e-014 -6.02303e-014
Spine  13.9506 1.42387 9.04923
Spine1  0.665819 3.94174 -8.90517
HEad  4.90123 -1.59431 -6.67066
LeftShoulder1  1.71504 -1.59723 -27.5178
LeftArm  14.7453 4.23636 -29.6542
LeftForeArm  3.74303 -25.8334 -5.34586
LeftHand  0.171338 -1.51876 -2.75299
RightShoulder  5.69508 27.9086 10.7155
RightArm  -47.9877 34.6338 -3.05072
RightForeArm  43.1638 6.30861 3.5449
RightHand  0.217166 -0.372708 5.10757
LeftUpLeg  -23.2332 17.0893 1.20772
LeftLeg  12.6591 2.23974 -0.267492
LeftFoot  0.967902 1.03024 -9.59326
LeftToes  2.15783e-011 -7.56106e-012 -8.20802e-012
1257
root  -6.30043 40.1951 -50.2802 -170.443 -44.4066 175.186
RightUpLeg  -11.7156 -10.841 -3.50692
RightLeg  5.30041 -36.246 4.21353
RightFoot  -3.45142 0.158535 -2.63643
RightToes  4.71047e-010 1.2921e-014 -6.02303e-014
Spine  13.4578 1.18334 8.52479
Spine1  0.881447 3.39439 -7.84765
HEad  4.8665 -0.480971 -6.64102
LeftShoulder1  1.71602 -1.5426 -27.9116
LeftArm  14.2016 4.38512 -30.2111
LeftForeArm  3.45518 -25.2764 -5.23531
LeftHand  0.140045 -1.42557 -2.26449
RightShoulder  6.37075 26.7033 13.9913
RightArm  -40.7409 32.1846 -1.34929
RightForeArm  43.9531 3.68557 4.87127
RightHand  0.222711 -0.631914 5.56187
LeftUpLeg  -23.6318 23.3333 1.22767
LeftLeg  15.2885 0.805931 0.428903
LeftFoot  0.286877 0.897686 -8.82211
LeftToes  2.15783e-011 -7.56106e-012 -8.20802e-012
1258
root  -6.51567 40.1959 -49.6425 -170.568 -48.0112 175.354
RightUpLeg  -11.4413 -11.8282 -4.50458
RightLeg  4.95886 -38.8842 4.54779
RightFoot  -2.48812 0.146778 -2.11287
RightToes  4.71047e-010 1.2921e-014 -6.02303e-014
Spine  13.1152 1.11466 8.4203
Spine1  0.908964 3.19974 -7.28432
HEad  5.15936 0.757811 -6.54518
LeftShoulder1  1.72507 -1.53411 -28.1547
LeftArm  15.7725 4.48212 -31.2065
LeftForeArm  1.76676 -24.2599 -5.09645
LeftHand  0.1171 -1.26814 -1.9318
RightShoulder  6.97478 25.4835 17.2484
RightArm  -32.2369 27.861 0.752965
RightForeArm  45.301 1.14936 6.61922
RightHand  0.227569 -0.396048 5.37797
LeftUpLeg  -23.6635 29.5886 1.39899
LeftLeg  16.9346 1.30021 0.766868
LeftFoot  -0.33306 0.830033 -8.58315
LeftToes  2.15783e-011 -7.56106e-012 -8.20802e-012
1259
root  -6.79149 40.1899 -49.0115 -170.691 -51.56 175.508
RightUpLeg  -11.0984 -12.8806 -5.62752
RightLeg  5.00795 -41.2313 4.63112
RightFoot  -1.71252 0.105546 -1.39055
RightToes  4.71047e-010 1.2921e-014 -6.02303e-014
Spine  12.7438 1.14567 8.23457
Spine1  0.711751 3.0786 -6.66176
HEad  5.65554 2.6379 -6.86671
LeftShoulder1  1.71239 -1.47951 -28.2781
LeftArm  18.1718 5.09335 -32.1817
LeftForeArm  0.0592293 -23.3179 -5.04991
LeftHand  0.133815 -1.31612 -2.20398
RightShoulder  7.39716 23.9257 20.4074
RightArm  -24.0827 23.3151 2.68904
RightForeArm  47.9401 -2.9334 8.25537
RightHand  0.21727 -0.620234 5.41316
LeftUpLeg  -23.5624 35.6727 1.18967
LeftLeg  17.67 2.87939 1.34938
LeftFoot  -0.74993 0.724797 -7.76421
LeftToes  2.15783e-011 -7.56106e-012 -8.20802e-012
1260
root  -7.14574 40.1736 -48.3701 -170.837 -55.3335 175.68
RightUpLeg  -10.5362 -14.0577 -6.87387
RightLeg  5.21979 -43.8176 4.59
RightFoot  -0.964297 0.0405734 -0.518843
RightToes  4.71047e-010 1.2921e-014 -6.02303e-014
Spine  12.1213 1.19188 8.29882
Spine1  0.752604 3.00424 -6.07963
HEad  6.11636 4.72362 -7.50524
LeftShoulder1  1.70698 -1.42897 -28.5257
LeftArm  20.4334 5.79416 -32.8875
LeftForeArm  -0.64314 -22.1692 -5.46771
LeftHand  0.174404 -1.50377 -2.81229
RightShoulder  7.44145 21.52 23.4002
RightArm  -17.5697 18.8783 3.77116
RightForeArm  50.2467 -7.04213 10.1211
RightHand  0.25196 -0.241814 5.74764
LeftUpLeg  -23.4826 41.5728 0.541462
LeftLeg  17.7774 4.9285 2.08865
LeftFoot  -1.02601 0.627396 -6.87853
LeftToes  2.15783e-011 -7.56106e-012 -8.20802e-012
1261
root  -7.57968 40.1423 -47.7201 -171.374 -59.2647 176.313
RightUpLeg  -9.55921 -15.2049 -8.08774
RightLeg  5.1525 -46.5105 4.83302
RightFoot  -0.110569 0.00265573 -0.0346571
RightToes  4.71047e-010 1.2921e-014 -6.02303e-014
Spine  11.1175 1.25835 8.72793
Spine1  1.11353 3.01625 -5.65937
HEad  6.40566 6.93143 -8.40045
LeftShoulder1  1.68694 -1.39413 -28.3584
LeftArm  21.7602 6.74513 -33.8838
LeftForeArm  -0.428272 -20.7019 -6.52515
LeftHand  0.209822 -1.54899 -3.38438
RightShoulder  7.19421 18.8294 26.0476
RightArm  -12.7395 13.5482 3.96122
RightForeArm  56.8812 -7.06481 11.545
RightHand  0.307818 0.319452 6.25055
LeftUpLeg  -23.2601 47.3709 -0.193899
LeftLeg  17.4002 7.64472 2.99859
LeftFoot  -1.39375 0.593955 -6.72502
LeftToes  2.15783e-011 -7.56106e-012 -8.20802e-012
1262
root  -8.07972 40.0978 -47.0397 -172.514 -63.1714 177.536
RightUpLeg  -8.04391 -16.3909 -9.33807
RightLeg  4.48457 -49.0922 5.72516
RightFoot  0.898259 -0.0498657 0.522004
RightToes  4.71047e-010 1.2921e-014 -6.02303e-014
Spine  10.1262 1.34711 8.96091
Spine1  1.35105 2.93068 -4.75747
HEad  6.61602 9.61816 -9.4371
LeftShoulder1  1.60913 -1.1768 -28.2912
LeftArm  22.1323 8.00871 -34.572
LeftForeArm  0.195482 -19.0553 -8.0358
LeftHand  0.232645 -1.48557 -3.80864
RightShoulder  6.4526 15.4738 27.9548
RightArm  -8.4786 8.59339 3.22614
RightForeArm  61.9542 -6.95829 12.6988
RightHand  0.296481 0.412471 5.91153
LeftUpLeg  -22.8928 53.0104 -0.943338
LeftLeg  16.7716 10.0136 3.67068
LeftFoot  -1.80101 0.482038 -5.64524
LeftToes  2.15783e-011 -7.56106e-012 -8.20802e-012
1263
root  -8.63181 40.0338 -46.3189 -173.833 -67.5645 179.067
RightUpLeg  -6.36776 -17.5541 -10.6995
RightLeg  3.77296 -52.1057 6.61516
RightFoot  2.07061 -0.109681 1.05268
RightToes  4.71047e-010 1.2921e-014 -6.02303e-014
Spine  8.64045 1.20621 8.63621
Spine1  1.69387 2.43071 -3.44128
HEad  6.82629 12.6188 -10.0529
LeftShoulder1  1.52901 -0.990617 -27.9212
LeftArm  20.514 9.76109 -35.1935
LeftForeArm  1.84461 -17.077 -9.82793
LeftHand  0.243155 -1.24866 -4.15361
RightShoulder  5.18074 11.3382 28.9329
RightArm  -3.88862 4.53157 2.17036
RightForeArm  64.8678 -6.51268 13.5851
RightHand  0.302338 0.51629 5.91038
LeftUpLeg  -20.5496 53.7907 0.133726
LeftLeg  15.478 14.27 3.60187
LeftFoot  -2.35258 0.38375 -4.70177
LeftToes  2.15783e-011 -7.56106e-012 -8.20802e-012
1264
root  -9.24145 39.9601 -45.5378 -175.641 -72.2264 -179.128
RightUpLeg  -4.18974 -18.7471 -12.3932
RightLeg  3.13486 -54.9973 7.44315
RightFoot  3.38639 -0.134535 1.21974
RightToes  4.71047e-010 1.2921e-014 -6.02303e-014
Spine  6.9942 0.776448 7.86807
Spine1  2.3908 1.61121 -2.1187
HEad  7.02784 15.1551 -9.58949
LeftShoulder1  1.46295 -0.841955 -27.553
LeftArm  17.4977 11.5831 -35.3822
LeftForeArm  4.15071 -14.9403 -11.5243
LeftHand  0.248981 -1.04337 -4.41392
RightShoulder  3.70479 7.18799 28.703
RightArm  0.35482 1.35236 1.07479
RightForeArm  68.144 -5.86933 14.2232
RightHand  0.326851 1.10027 5.75395
LeftUpLeg  -14.1068 43.6823 5.17355
LeftLeg  12.8584 24.4707 1.35648
LeftFoot  -1.79069 0.37682 -4.38169
LeftToes  2.15783e-011 -7.56106e-012 -8.20802e-012
1265
root  -9.86099 39.9245 -44.7143 -175.558 -76.8352 -179.265
RightUpLeg  -1.61522 -20.3719 -15.0011
RightLeg  1.90149 -57.3135 8.97731
RightFoot  4.72056 -0.164657 1.39566
RightToes  4.71047e-010 1.2921e-014 -6.02303e-014
Spine  5.31513 0.105323 5.74326
Spine1  3.28717 0.593302 -1.18325
HEad  6.90302 17.2562 -8.10378
LeftShoulder1  1.37392 -0.617492 -27.2137
LeftArm  15.1062 13.2881 -34.9385
LeftForeArm  5.69989 -13.1163 -12.8133
LeftHand  0.251317 -0.848155 -4.67132
RightShoulder  2.44055 3.71884 27.8444
RightArm  3.164 -0.913496 -0.384331
RightForeArm  71.5406 -5.31096 14.5696
RightHand  0.307853 1.43899 5.11089
LeftUpLeg  -12.2556 37.1927 5.80366
LeftLeg  11.7403 27.3298 -1.3772
LeftFoot  -1.80859 0.347453 -4.03666
LeftToes  2.15783e-011 -7.56106e-012 -8.20802e-012
1266
root  -10.3691 39.7981 -43.8394 -171.832 -81.5374 176.415
RightUpLeg  0.0478703 -23.2494 -18.2709
RightLeg  6.89801 -57.4682 4.71629
RightFoot  4.90766 -0.267446 2.10816
RightToes  4.71047e-010 1.2921e-014 -6.02303e-014
Spine  5.44123 -0.61326 3.09491
Spine1  2.79885 -0.573619 0.257786
HEad  6.7353 18.4006 -6.28595
LeftShoulder1  1.34644 -0.515683 -27.3781
LeftArm  13.0473 13.7808 -33.3836
LeftForeArm  6.84944 -10.9362 -14.2104
LeftHand  0.25498 -0.627179 -4.88431
RightShoulder  1.28286 0.44605 26.559
RightArm  5.41823 -2.63087 -1.46737
RightForeArm  72.405 -4.94917 14.8227
RightHand  0.297956 1.67523 4.75433
LeftUpLeg  -14.8833 39.2898 0.901455
LeftLeg  14.1999 19.9715 1.53133
LeftFoot  -2.79606 0.232235 -2.8837
LeftToes  2.15783e-011 -7.56106e-012 -8.20802e-012
1267
root  -10.8529 39.6379 -42.9965 -157.741 -86.15 161.607
RightUpLeg  1.34859 -27.2346 -20.8884
RightLeg  11.1069 -49.3429 0.290639
RightFoot  2.16611 -0.754077 6.4855
RightToes  4.71047e-010 1.2921e-014 -6.02303e-014
Spine  5.30732 -1.20914 1.2111
Spine1  3.28582 -1.3346 0.554965
HEad  5.86031 17.9379 -4.27533
LeftShoulder1  1.40601 -0.708502 -27.2576
LeftArm  8.30883 13.0065 -31.9024
LeftForeArm  9.72295 -7.6554 -15.6113
LeftHand  0.271839 -0.501952 -5.33716
RightShoulder  0.300424 -2.47758 23.7503
RightArm  11.1673 -5.14515 -1.01424
RightForeArm  68.5976 -4.16892 15.5089
RightHand  0.317693 2.2175 4.66807
LeftUpLeg  -16.142 35.9384 -2.5535
LeftLeg  16.5112 17.8222 4.50701
LeftFoot  -4.20065 0.134816 -1.75595
LeftToes  2.15783e-011 -7.56106e-012 -8.20802e-012
1268
root  -11.2398 39.5783 -42.2159 -126.845 -88.072 129.819
RightUpLeg  0.556367 -28.5588 -20.8259
RightLeg  12.2519 -34.2481 -2.50271
RightFoot  -2.25635 -0.712241 8.75409
RightToes  4.71047e-010 1.2921e-014 -6.02303e-014
Spine  5.77189 -1.0775 0.730735
Spine1  3.73092 -0.848706 -1.19754
HEad  5.86025 17.3581 -2.77341
LeftShoulder1  1.46089 -0.845763 -27.474
LeftArm  4.76638 12.1978 -30.0213
LeftForeArm  11.2446 -5.80192 -16.0969
LeftHand  0.25376 -0.172965 -5.31636
RightShoulder  -0.149072 -4.01935 21.0884
RightArm  22.0939 -7.59358 -0.735793
RightForeArm  57.2031 -2.20925 16.7326
RightHand  0.427339 2.83657 5.811
LeftUpLeg  -14.6124 31.7232 -2.87796
LeftLeg  17.4953 19.5761 4.93942
LeftFoot  -5.65306 0.0789826 -0.905524
LeftToes  2.15783e-011 -7.56106e-012 -8.20802e-012
1269
root  -11.587 39.5649 -41.5177 -88.1383 -88.4076 90.5148
RightUpLeg  -3.52189 -24.9104 -18.3598
RightLeg  16.5337 -19.4703 -6.06425
RightFoot  -4.12133 -0.191252 2.58566
RightToes  4.71047e-010 1.2921e-014 -6.02303e-014
Spine  7.12546 -0.848272 0.687791
Spine1  2.85524 -0.16912 -3.35257
HEad  6.39242 17.2145 -1.58922
LeftShoulder1  1.42891 -0.703676 -27.8572
LeftArm  3.33409 12.2117 -27.7577
LeftForeArm  11.7321 -5.71366 -15.9934
LeftHand  0.218031 -0.00269896 -4.73303
RightShoulder  -0.129671 -3.97324 19.6781
RightArm  27.6615 -7.98127 -0.428241
RightForeArm  51.1579 -0.945919 17.2193
RightHand  0.488237 3.31535 6.26412
LeftUpLeg  -12.7572 27.4899 -2.56214
LeftLeg  17.7482 22.771 4.5355
LeftFoot  -6.95002 0.0765213 -0.906342
LeftToes  2.15783e-011 -7.56106e-012 -8.20802e-012
